# xmcd CD database file
#
# Track frame offsets:
#	150
#	26715
#	45997
#	82945
#	99940
#	132225
#	160447
#	197085
#	233410
#	259412
#
# Disc length: 3754 seconds
#
# Revision: 0
# Processed by: cddbd v1.5.2PL0 Copyright (c) Steve Scherf et al.
# Submitted via: CDex 1.70beta2
#
DISCID=760ea80a
DTITLE=Hideki Kon - My Shining Hour
DYEAR=1996
DGENRE=Jazz
TTITLE0=Don't Get Around Much Any More
TTITLE1=Honey
TTITLE2=When I Fall In Love
TTITLE3=My Shining Hour
TTITLE4=Teach Me Tonight
TTITLE5=Over The Rainbow - I Can't Get Started
TTITLE6=Better Than Me Blues
TTITLE7=Sweet Georgia Brown
TTITLE8=Gravy Waltz
TTITLE9=Holly Land
EXTD=YEAR: 1996
EXTT0=
EXTT1=
EXTT2=
EXTT3=
EXTT4=
EXTT5=
EXTT6=
EXTT7=
EXTT8=
EXTT9=
PLAYORDER=
